<svg xmlns="http://www.w3.org/2000/svg" xmlns:xlink="http://www.w3.org/1999/xlink" width="88" zoomAndPan="magnify" viewBox="0 0 66 14.25" height="19" preserveAspectRatio="xMidYMid meet" version="1.0"><defs><g/></defs><path fill="#5eac12" d="M 60.007812 5.5 C 58.371094 5.5 57.515625 6.378906 56.824219 7.085938 C 56.1875 7.738281 55.683594 8.253906 54.628906 8.253906 C 53.574219 8.253906 53.070312 7.738281 52.433594 7.085938 C 51.746094 6.378906 50.886719 5.5 49.253906 5.5 C 47.617188 5.5 46.761719 6.378906 46.074219 7.085938 C 45.4375 7.738281 44.933594 8.253906 43.878906 8.253906 C 42.824219 8.253906 42.324219 7.738281 41.683594 7.085938 C 40.996094 6.378906 40.140625 5.5 38.503906 5.5 C 36.871094 5.5 36.015625 6.378906 35.324219 7.085938 C 34.6875 7.738281 34.183594 8.253906 33.132812 8.253906 C 32.078125 8.253906 31.574219 7.738281 30.9375 7.085938 C 30.25 6.378906 29.394531 5.5 27.761719 5.5 C 26.125 5.5 25.269531 6.378906 24.582031 7.085938 C 23.945312 7.738281 23.441406 8.253906 22.386719 8.253906 C 21.335938 8.253906 20.832031 7.738281 20.195312 7.085938 C 19.507812 6.378906 18.648438 5.5 17.015625 5.5 C 15.382812 5.5 14.527344 6.378906 13.839844 7.085938 C 13.203125 7.738281 12.699219 8.253906 11.648438 8.253906 C 10.59375 8.253906 10.089844 7.738281 9.453125 7.085938 C 8.765625 6.378906 7.90625 5.5 6.273438 5.5 C 5.894531 5.5 5.585938 5.808594 5.585938 6.1875 C 5.585938 6.570312 5.894531 6.878906 6.273438 6.878906 C 7.328125 6.878906 7.832031 7.394531 8.46875 8.046875 C 9.15625 8.753906 10.011719 9.632812 11.648438 9.632812 C 13.28125 9.632812 14.136719 8.753906 14.824219 8.046875 C 15.460938 7.394531 15.964844 6.878906 17.015625 6.878906 C 18.070312 6.878906 18.570312 7.394531 19.210938 8.046875 C 19.898438 8.753906 20.753906 9.632812 22.386719 9.632812 C 24.023438 9.632812 24.878906 8.753906 25.566406 8.046875 C 26.203125 7.394531 26.707031 6.878906 27.761719 6.878906 C 28.8125 6.878906 29.316406 7.394531 29.953125 8.046875 C 30.640625 8.753906 31.5 9.632812 33.132812 9.632812 C 34.765625 9.632812 35.621094 8.753906 36.3125 8.046875 C 36.949219 7.394531 37.453125 6.878906 38.503906 6.878906 C 39.558594 6.878906 40.0625 7.394531 40.699219 8.046875 C 41.386719 8.753906 42.246094 9.632812 43.878906 9.632812 C 45.511719 9.632812 46.371094 8.753906 47.058594 8.046875 C 47.695312 7.394531 48.199219 6.878906 49.253906 6.878906 C 50.304688 6.878906 50.808594 7.394531 51.449219 8.046875 C 52.136719 8.753906 52.996094 9.632812 54.628906 9.632812 C 56.265625 9.632812 57.121094 8.753906 57.8125 8.046875 C 58.449219 7.394531 58.953125 6.878906 60.007812 6.878906 C 60.386719 6.878906 60.695312 6.570312 60.695312 6.1875 C 60.695312 5.808594 60.386719 5.5 60.007812 5.5 Z M 60.007812 5.5 " fill-opacity="1" fill-rule="nonzero"/><g fill="#ffffff" fill-opacity="1"><g transform="translate(60.920776, 6.267726)"><g><path d="M 0.390625 -0.265625 C 0.390625 -0.378906 0.410156 -0.460938 0.453125 -0.515625 C 0.503906 -0.578125 0.582031 -0.609375 0.6875 -0.609375 C 0.78125 -0.609375 0.851562 -0.578125 0.90625 -0.515625 C 0.96875 -0.460938 1 -0.378906 1 -0.265625 C 1 -0.160156 0.96875 -0.078125 0.90625 -0.015625 C 0.851562 0.046875 0.78125 0.078125 0.6875 0.078125 C 0.59375 0.078125 0.519531 0.0507812 0.46875 0 C 0.414062 -0.0507812 0.390625 -0.140625 0.390625 -0.265625 Z M 0.390625 -0.265625 "/></g></g></g></svg>